<svg xmlns="http://www.w3.org/2000/svg" width="278" height="111" viewBox="0 0 278 111"><g fill="none" fill-rule="evenodd"><text fill="#054d46" font-family="Montserrat-ExtraBoldItalic, Montserrat" font-size="100" font-style="italic" font-weight="600" transform="translate(-1)"><tspan x="0" y="110">404</tspan></text><g fill-rule="nonzero"><g fill="#3C3C3C"><path d="M275.493 40.213c.852-.242 1.665-.494 2.507-.688-.048-.658-.077-1.22-.126-1.84-.93-.077-1.79-.164-2.642-.242-.165-.61-.29-1.133-.397-1.714a81.917 81.917 0 0 0 2.139-1.472c-.29-.61-.484-1.134-.736-1.666-.929.203-1.742.397-2.555.61-.368-.533-.658-1.027-.978-1.472.562-.736 1.055-1.346 1.588-2.083a34.67 34.67 0 0 1-1.297-1.346c-.736.494-1.452.94-2.14 1.395-.483-.368-.89-.688-1.374-1.056.29-.813.533-1.627.765-2.45-.562-.29-1.055-.572-1.617-.852-.532.687-1.055 1.346-1.539 1.995-.658-.204-1.132-.397-1.742-.61v-2.48c-.658-.077-1.258-.165-1.82-.242-.29.814-.561 1.55-.813 2.286h-1.79c-.29-.765-.562-1.501-.852-2.286-.687.165-1.22.242-1.868.368v2.45c-.61.204-1.084.397-1.617.572-.532-.659-1.055-1.26-1.539-1.918-.61.368-1.084.659-1.665.94.29.813.533 1.588.765 2.363-.484.368-.93.736-1.345 1.056a76.724 76.724 0 0 1-2.062-1.298c-.445.532-.852.978-1.258 1.423.532.688.977 1.298 1.451 1.957-.319.494-.658.978-.929 1.424-.852-.165-1.587-.368-2.352-.533-.29.658-.484 1.181-.735 1.743.735.494 1.345.891 2.032 1.346-.164.572-.29 1.105-.397 1.666-.813.078-1.587.165-2.43.29-.048.611-.077 1.221-.125 1.87.852.242 1.587.397 2.352.659.078.571.126 1.104.165 1.627-.765.368-1.5.736-2.227 1.104.165.659.29 1.182.446 1.84.929-.077 1.694-.126 2.507-.203.242.571.445 1.026.687 1.55a35.49 35.49 0 0 0-1.868 1.743c.397.571.735 1.055 1.055 1.55.852-.32 1.616-.66 2.352-.979.397.446.765.814 1.132 1.22-.397.766-.813 1.502-1.22 2.277.533.397 1.007.765 1.54 1.133.658-.61 1.258-1.182 1.868-1.744.532.29.977.533 1.452.766-.126.89-.242 1.743-.368 2.644.61.203 1.18.397 1.79.61.446-.853.814-1.589 1.22-2.315.562.077 1.055.165 1.617.242.164.852.32 1.714.484 2.557h1.907c.164-.891.29-1.714.445-2.557.561-.126 1.084-.203 1.616-.29.445.813.852 1.588 1.297 2.363.658-.204 1.22-.446 1.743-.61-.126-.979-.29-1.84-.397-2.683.561-.29 1.006-.533 1.452-.765.687.658 1.345 1.22 2.032 1.82.533-.397.978-.813 1.452-1.181a79.092 79.092 0 0 1-1.297-2.363c.445-.446.813-.853 1.181-1.22.852.367 1.616.687 2.478 1.026.368-.533.658-1.027.978-1.501-.688-.688-1.346-1.298-1.956-1.87.242-.57.446-1.055.688-1.55.89.078 1.742.127 2.671.204.165-.658.29-1.181.445-1.792-.851-.397-1.665-.736-2.478-1.104.126-.658.175-1.19.252-1.714zm-13.619 8.988c-5.023-.078-9.03-4.242-8.953-9.278.077-5.085 4.143-9.066 9.195-9.037 4.985.078 9.08 4.194 9.031 9.114-.029 5.133-4.25 9.278-9.273 9.201z"/><path d="M262.01 48c4.354-.02 7.96-3.603 7.99-7.971.029-4.368-3.656-8.029-8.058-8.029-4.354 0-7.961 3.613-7.942 7.97-.01 4.485 3.559 8.05 8.01 8.03zm-.146-11.545c2.046 0 3.607 1.57 3.607 3.632.02 1.986-1.522 3.535-3.52 3.555-1.987.019-3.607-1.521-3.636-3.458-.02-2.053 1.58-3.729 3.55-3.729z"/></g><path fill="#303030" d="M253.834 63.692c1.026-.307 2.087-.625 3.149-.932-.083-.813-.154-1.462-.236-2.158-1.109-.118-2.158-.235-3.196-.306a22.421 22.421 0 0 0-.507-2.04 478.32 478.32 0 0 0 2.641-1.804c-.353-.743-.66-1.38-.955-2.005-1.108.271-2.087.507-3.03.743-.425-.66-.755-1.203-1.144-1.769.625-.86 1.227-1.65 1.887-2.547-.543-.59-1.073-1.084-1.58-1.615a95.164 95.164 0 0 1-2.57 1.698c-.59-.425-1.11-.896-1.699-1.309.354-1.014.625-1.97.92-2.971-.696-.354-1.309-.66-2.005-1.014-.66.86-1.226 1.615-1.85 2.393a94.627 94.627 0 0 1-2.123-.743v-3.042c-.837-.118-1.533-.2-2.24-.271-.39 1.05-.696 1.887-.956 2.783h-2.193c-.354-.979-.66-1.804-.99-2.783-.755.118-1.415.271-2.24.39v2.97c-.755.272-1.416.508-2.088.743-.625-.813-1.19-1.497-1.804-2.31-.743.424-1.344.778-2.04 1.167.354 1.014.66 1.886.955 2.818-.59.471-1.108.896-1.65 1.309-.873-.543-1.651-1.05-2.489-1.58-.542.59-1.025 1.167-1.532 1.733.66.814 1.226 1.58 1.804 2.358-.425.625-.755 1.168-1.144 1.734-.955-.236-1.851-.425-2.877-.66-.307.742-.59 1.414-.873 2.157a69.18 69.18 0 0 0 2.453 1.58c-.154.743-.307 1.38-.472 2.04-1.026.118-1.97.2-2.96.307-.082.86-.117 1.58-.2 2.31 1.073.272 2.005.543 2.96.814.035.696.082 1.345.118 2.005-.92.424-1.805.814-2.724 1.262.2.778.389 1.462.59 2.193 1.108-.083 2.086-.118 3.03-.189.306.625.542 1.203.802 1.851a320.24 320.24 0 0 0-2.24 2.123c.47.696.872 1.262 1.308 1.887.99-.425 1.922-.814 2.842-1.203.507.542.92 1.014 1.344 1.462-.472.979-.92 1.851-1.415 2.783.66.507 1.226.978 1.804 1.415.802-.743 1.58-1.415 2.335-2.123.59.307 1.108.625 1.733.979-.153 1.05-.306 2.087-.472 3.172.755.236 1.463.471 2.158.696.543-.98 1.073-1.887 1.58-2.819.696.154 1.31.236 1.922.354.236 1.132.425 2.123.625 3.172h2.24c.237-1.132.425-2.158.626-3.207.695-.118 1.344-.189 1.969-.271.542 1.014 1.026 1.85 1.58 2.818.755-.272 1.415-.507 2.122-.779a127.44 127.44 0 0 1-.507-3.207c.59-.306 1.144-.625 1.769-.979.802.779 1.615 1.463 2.453 2.194.625-.507 1.19-.932 1.768-1.38-.542-1.014-1.025-1.922-1.58-2.9.507-.508.92-.98 1.415-1.498.99.424 1.97.86 2.995 1.309.425-.66.802-1.262 1.227-1.887-.838-.814-1.616-1.497-2.418-2.276.307-.66.625-1.226.873-1.85 1.073.082 2.087.117 3.23.2.201-.696.355-1.415.543-2.158-1.026-.472-1.969-.861-2.96-1.31.071-.648.118-1.332.19-2.027zm-14.857-11.226c2.995.39 5.294 1.769 7.299 4.163-1.462.813-2.877 1.65-4.221 2.429-1.026-.59-2.005-1.132-3.078-1.734v-4.858zm-2.889.106v4.705c-.99.625-2.004 1.168-3.077 1.769-1.31-.743-2.689-1.58-4.104-2.394 1.462-2.228 4.658-4.032 7.181-4.08zm-8.75 6.45a889 889 0 0 0 4.187 2.394v3.738c-1.344.778-2.724 1.58-4.222 2.476-1.155-2.889-1.073-5.636.036-8.608zm8.75 15.447c-3.077-.424-5.448-1.851-7.452-4.398a146.38 146.38 0 0 0 4.139-2.394c1.108.66 2.158 1.262 3.313 1.97v4.822zm1.427-7.806c-1.769 0-3.148-1.462-3.148-3.29.035-1.733 1.415-3.136 3.195-3.089 1.733 0 3.113 1.38 3.113 3.137.024 1.768-1.427 3.242-3.16 3.242zm1.462 7.841v-4.87c1.073-.66 2.122-1.261 3.313-1.969 1.227.743 2.642 1.533 4.14 2.394-1.935 2.5-4.34 3.938-7.453 4.445zm8.785-6.886c-1.463-.86-2.877-1.698-4.222-2.476v-3.738c1.227-.743 2.606-1.497 4.104-2.393 1.226 2.9 1.226 5.683.118 8.607z"/><path fill="#5E5E5E" d="M266.49 9.061c.471-.14.96-.287 1.448-.428-.038-.375-.07-.673-.109-.993-.51-.055-.992-.109-1.47-.141-.07-.342-.141-.635-.233-.94.423-.287.814-.553 1.215-.83-.163-.341-.304-.634-.44-.922-.51.125-.96.234-1.394.342-.195-.304-.347-.553-.526-.814.287-.396.564-.76.868-1.172-.25-.271-.494-.499-.727-.743a43.79 43.79 0 0 1-1.183.781c-.271-.195-.51-.412-.781-.602.163-.467.287-.906.423-1.367l-.922-.467c-.304.396-.565.743-.852 1.102-.32-.109-.635-.218-.977-.342v-1.4A24.96 24.96 0 0 0 259.8 0c-.18.483-.321.868-.44 1.28h-1.01c-.162-.45-.303-.83-.455-1.28-.348.054-.651.125-1.031.18v1.366c-.348.125-.651.234-.96.342-.288-.374-.549-.689-.83-1.063-.343.195-.62.358-.94.537.163.467.304.868.44 1.297-.271.217-.51.412-.76.602-.401-.25-.76-.483-1.144-.727-.25.271-.473.537-.706.797.304.375.564.728.83 1.086-.195.287-.347.537-.526.797-.44-.108-.852-.195-1.324-.304-.141.342-.271.652-.401.993.401.272.76.5 1.128.727-.07.342-.14.635-.217.94-.472.053-.906.091-1.362.14-.038.396-.054.727-.092 1.064.494.124.922.25 1.362.374.016.32.038.619.054.922-.423.196-.83.375-1.253.581.092.358.179.673.271 1.01.51-.039.96-.055 1.395-.088.14.288.25.554.368.852-.341.32-.672.635-1.03.977.217.32.401.58.602.868.456-.195.884-.374 1.307-.553.234.25.424.466.619.672-.217.45-.423.852-.651 1.281.304.233.564.45.83.651.369-.342.727-.651 1.074-.977.272.141.51.288.798.45-.07.484-.141.961-.217 1.46.347.109.673.217.993.32.25-.45.494-.868.727-1.296.32.07.602.108.884.162.109.521.196.977.288 1.46h1.03c.11-.52.196-.993.288-1.476.32-.054.619-.087.907-.125.25.467.472.852.727 1.297.347-.125.65-.233.976-.358-.086-.52-.162-.977-.233-1.476.271-.14.526-.287.814-.45.369.358.743.673 1.128 1.01.288-.234.548-.43.814-.636-.25-.466-.472-.884-.727-1.335.234-.233.424-.45.651-.689.456.196.907.396 1.379.603.195-.304.369-.58.564-.868-.385-.375-.743-.69-1.112-1.048.14-.304.287-.564.401-.852.494.038.96.055 1.487.093.092-.32.163-.651.25-.993-.473-.217-.907-.396-1.363-.603.033-.298.055-.613.087-.933zm-6.837-5.165c1.378.179 2.436.814 3.358 1.915-.673.375-1.324.76-1.942 1.118-.472-.271-.923-.521-1.416-.798V3.896zm-1.33.049V6.11c-.455.287-.922.537-1.416.813-.602-.341-1.237-.727-1.888-1.101.673-1.026 2.143-1.856 3.304-1.877zm-4.026 2.968c.69.396 1.324.76 1.926 1.101v1.72c-.618.358-1.253.727-1.942 1.14-.532-1.33-.494-2.594.016-3.961zm4.026 7.107c-1.416-.195-2.506-.851-3.429-2.023a67.357 67.357 0 0 0 1.905-1.102c.51.304.993.58 1.524.906v2.22zm.657-3.591c-.814 0-1.449-.673-1.449-1.514.016-.798.651-1.444 1.47-1.422.798 0 1.433.635 1.433 1.443.01.814-.657 1.493-1.454 1.493zm.673 3.608v-2.241c.493-.304.976-.58 1.524-.906.565.342 1.216.705 1.905 1.101-.89 1.15-1.997 1.812-3.43 2.046zm4.042-3.169c-.673-.396-1.324-.781-1.943-1.14v-1.72c.565-.341 1.2-.688 1.889-1.1.564 1.334.564 2.614.054 3.96z"/><g fill="#4D4D4D"><path d="M248.714 20.42a.904.904 0 0 0-.652-.175s-.008-.048-.016-.112c-.008-.071-.016-.159-.032-.254-.016-.088-.032-.183-.048-.255-.008-.071-.024-.111-.024-.111a.9.9 0 0 0 .565-.358.672.672 0 0 0 .12-.302.69.69 0 0 0-.025-.334.752.752 0 0 0-.175-.286.786.786 0 0 0-.604-.223.906.906 0 0 0-.342.087s-.016-.04-.048-.103c-.023-.064-.071-.143-.11-.23-.04-.08-.08-.168-.12-.223a1.694 1.694 0 0 0-.056-.104.906.906 0 0 0 .43-.517.749.749 0 0 0 .023-.326.683.683 0 0 0-.127-.302.66.66 0 0 0-.254-.214.69.69 0 0 0-.31-.08.888.888 0 0 0-.629.247l-.024-.024c-.015-.016-.031-.032-.055-.064-.048-.048-.112-.12-.175-.183-.064-.063-.135-.127-.183-.175a.348.348 0 0 0-.064-.055l-.024-.024a.888.888 0 0 0 .247-.629.69.69 0 0 0-.08-.31.66.66 0 0 0-.214-.254.756.756 0 0 0-.636-.111c-.207.055-.398.214-.525.429 0 0-.04-.024-.104-.056-.055-.04-.143-.08-.222-.119-.08-.04-.167-.087-.23-.111-.065-.032-.104-.048-.104-.048.047-.111.08-.23.087-.342a.74.74 0 0 0-.048-.326.752.752 0 0 0-.461-.445.683.683 0 0 0-.334-.024.71.71 0 0 0-.302.119.932.932 0 0 0-.366.565s-.047-.008-.111-.024a5.06 5.06 0 0 0-.255-.048l-.365-.048a.95.95 0 0 0-.167-.652.747.747 0 0 0-.573-.286.747.747 0 0 0-.573.286.904.904 0 0 0-.174.652s-.048.008-.112.016c-.071.008-.159.016-.254.032-.088.016-.183.032-.255.048-.071.008-.111.024-.111.024a.9.9 0 0 0-.358-.565.672.672 0 0 0-.302-.12.69.69 0 0 0-.334.025.752.752 0 0 0-.286.175.786.786 0 0 0-.223.604c.008.111.032.23.087.342 0 0-.04.016-.103.048-.064.023-.143.071-.23.11-.08.04-.168.08-.223.12-.064.032-.104.056-.104.056a.906.906 0 0 0-.517-.43.749.749 0 0 0-.326-.023.683.683 0 0 0-.302.127.66.66 0 0 0-.214.254.69.69 0 0 0-.08.31.888.888 0 0 0 .247.629l-.024.024c-.016.015-.032.031-.064.055-.048.048-.12.112-.183.175-.063.064-.127.135-.175.183a.348.348 0 0 0-.055.064l-.024.024a.888.888 0 0 0-.629-.247.69.69 0 0 0-.31.08.66.66 0 0 0-.254.214.756.756 0 0 0-.111.636c.055.207.214.398.429.525 0 0-.024.04-.056.104-.04.055-.08.143-.119.222-.04.08-.087.167-.111.23-.032.065-.048.104-.048.104a1.085 1.085 0 0 0-.342-.087.74.74 0 0 0-.326.048.752.752 0 0 0-.445.461.683.683 0 0 0-.024.334.71.71 0 0 0 .119.302c.127.183.326.31.565.366 0 0-.008.047-.024.111a5.06 5.06 0 0 0-.048.255l-.048.365a.95.95 0 0 0-.652.167.747.747 0 0 0-.286.573c.008.23.111.437.286.573a.904.904 0 0 0 .652.174s.008.048.016.112c.008.071.016.159.032.254.016.088.032.183.048.255a.467.467 0 0 0 .024.111.9.9 0 0 0-.565.358.672.672 0 0 0-.12.302.69.69 0 0 0 .025.334c.04.111.095.207.175.286a.786.786 0 0 0 .604.223.906.906 0 0 0 .342-.087s.016.04.048.103c.023.064.071.143.11.23.04.08.08.168.12.223.032.064.056.104.056.104a.906.906 0 0 0-.43.517.749.749 0 0 0-.023.326.683.683 0 0 0 .127.302.66.66 0 0 0 .254.214.69.69 0 0 0 .31.08.888.888 0 0 0 .629-.247l.024.024a.52.52 0 0 1 .055.064c.048.048.112.12.175.183.064.063.135.127.183.175a.348.348 0 0 0 .064.055l.024.024a.888.888 0 0 0-.247.629.69.69 0 0 0 .08.31.66.66 0 0 0 .214.254.756.756 0 0 0 .636.111c.207-.055.398-.214.525-.429 0 0 .04.024.104.056.055.04.143.08.222.119.08.04.167.087.23.111.065.032.104.048.104.048-.047.111-.08.23-.087.342a.74.74 0 0 0 .048.326.752.752 0 0 0 .461.445c.111.04.222.04.334.024a.71.71 0 0 0 .302-.119.932.932 0 0 0 .366-.565s.047.008.111.024a5.06 5.06 0 0 0 .62.096.95.95 0 0 0 .167.652.747.747 0 0 0 .573.286.747.747 0 0 0 .573-.286.904.904 0 0 0 .174-.652s.048-.008.112-.016c.071-.008.159-.016.254-.032.088-.016.183-.032.255-.048.071-.008.111-.024.111-.024a.9.9 0 0 0 .358.565c.087.064.19.103.302.12a.69.69 0 0 0 .334-.025.752.752 0 0 0 .286-.175.786.786 0 0 0 .223-.604.906.906 0 0 0-.087-.342s.04-.016.103-.048c.064-.023.143-.071.23-.11.08-.04.168-.08.223-.12.064-.032.104-.056.104-.056.119.215.31.366.517.43.103.031.214.04.326.023a.683.683 0 0 0 .302-.127.66.66 0 0 0 .214-.254.69.69 0 0 0 .08-.31.888.888 0 0 0-.247-.629l.024-.024a.52.52 0 0 1 .064-.055c.048-.048.12-.112.183-.175.063-.064.127-.135.175-.183a.348.348 0 0 0 .055-.064l.024-.024a.888.888 0 0 0 .629.247.69.69 0 0 0 .31-.08.66.66 0 0 0 .254-.214.756.756 0 0 0 .111-.636c-.055-.207-.214-.398-.429-.525 0 0 .024-.04.056-.104.04-.055.08-.143.119-.222.04-.08.087-.167.111-.23.032-.065.048-.104.048-.104.111.047.23.08.342.087a.74.74 0 0 0 .326-.048.752.752 0 0 0 .445-.461.683.683 0 0 0 .024-.334.71.71 0 0 0-.119-.302.932.932 0 0 0-.565-.366s.008-.047.024-.111a5.06 5.06 0 0 0 .048-.255l.048-.365a.95.95 0 0 0 .652-.167.747.747 0 0 0 .286-.573.747.747 0 0 0-.286-.573zm-7.738 2.966c-1.232 0-2.298-1.074-2.298-2.346 0-1.233 1.01-2.283 2.266-2.283 1.297-.023 2.299.987 2.338 2.283 0 1.272-1.01 2.346-2.306 2.346z"/><path d="M251.902 21.201c.686-.197 1.38-.379 2.098-.6-.024-.504-.095-.946-.134-1.443-.757-.095-1.443-.158-2.121-.221a17.607 17.607 0 0 1-.34-1.381l1.783-1.2a15.663 15.663 0 0 1-.623-1.357c-.718.197-1.38.355-2.066.505-.245-.402-.537-.82-.781-1.2.442-.599.844-1.136 1.285-1.704-.378-.378-.686-.726-1.025-1.065-.623.379-1.183.758-1.758 1.136-.403-.315-.757-.6-1.136-.907.22-.663.402-1.286.623-1.957-.465-.245-.915-.466-1.34-.687-.442.577-.844 1.105-1.247 1.602a18.377 18.377 0 0 1-1.403-.505v-2.02c-.537-.063-1.002-.134-1.499-.197-.22.663-.441 1.286-.654 1.886h-1.396c-.244-.623-.465-1.223-.718-1.886-.536.134-1.001.22-1.498.316v1.98c-.465.158-.915.316-1.34.466-.442-.537-.82-1.042-1.223-1.578-.497.284-.915.536-1.34.78.22.664.402 1.263.623 1.887-.403.284-.758.576-1.136.844-.56-.355-1.096-.687-1.656-1.042-.34.403-.686.782-1.025 1.16.441.537.844 1.066 1.222 1.579-.284.402-.497.78-.78 1.16-.624-.135-1.223-.285-1.917-.442-.181.505-.402.978-.6 1.444.6.378 1.097.726 1.657 1.104-.134.442-.221.884-.34 1.357-.654.064-1.245.135-1.94.198-.062.536-.094 1.041-.157 1.538.718.198 1.34.38 1.964.537.023.505.063.915.094 1.357-.623.284-1.183.576-1.806.845.127.536.245 1.002.379 1.507.717-.063 1.34-.095 2.027-.158.18.402.339.781.56 1.223-.497.505-1.002.947-1.499 1.444.316.442.6.844.875 1.262a51.709 51.709 0 0 1 1.917-.78c.315.354.6.662.875.978a53.482 53.482 0 0 1-.978 1.862c.442.355.82.623 1.223.947.56-.505 1.064-.947 1.561-1.42.402.22.757.402 1.16.623-.095.726-.182 1.42-.285 2.138.497.158.978.316 1.443.466.379-.687.687-1.286 1.026-1.886.465.095.875.158 1.285.22.158.727.284 1.421.402 2.084h1.538c.134-.726.244-1.38.379-2.083.465-.095.914-.158 1.316-.197a44.34 44.34 0 0 1 1.026 1.885c.536-.197.978-.355 1.443-.505-.134-.78-.221-1.483-.34-2.177.442-.221.82-.442 1.184-.624.56.466 1.096.979 1.656 1.484.402-.355.78-.624 1.159-.947-.34-.663-.686-1.286-1.025-1.957.315-.355.623-.663.938-1.002.655.315 1.317.576 2.003.884.284-.442.536-.845.82-1.287a64.964 64.964 0 0 0-1.6-1.483c.22-.442.378-.82.56-1.263.717.024 1.403.095 2.184.127.126-.505.22-.979.339-1.444-.686-.316-1.317-.6-1.964-.884.016-.418.04-.86.063-1.326zm-1.198.268c-.008.143-.024.308-.04.49l-.07.552c-.064.379-.143.75-.222 1.026-.039.134-.07.252-.094.331-.024.08-.04.127-.04.127l-.039.126c-.032.079-.063.197-.118.323-.103.269-.253.624-.426.963-.047.087-.087.174-.134.252a3.596 3.596 0 0 0-.134.237c-.087.158-.182.292-.26.418a7.01 7.01 0 0 1-.198.284c-.047.071-.079.111-.079.111s-.031.04-.078.11c-.056.064-.127.158-.213.269-.087.11-.197.236-.316.37-.118.135-.252.269-.386.41-.142.135-.276.27-.41.388-.134.118-.26.228-.37.315-.111.087-.206.166-.269.213-.071.048-.11.08-.11.08s-.04.03-.11.078c-.072.047-.166.118-.285.197-.118.08-.26.174-.418.26-.079.048-.157.087-.236.135-.08.047-.166.087-.253.134-.339.174-.694.324-.962.426-.134.055-.244.087-.323.118-.079.024-.126.04-.126.04s-.047.016-.126.04l-.332.094a9.86 9.86 0 0 1-1.025.221c-.189.032-.378.047-.552.071-.181.016-.347.024-.489.04-.284.007-.473.015-.473.015s-.19-.008-.473-.016c-.142-.007-.308-.023-.489-.039l-.552-.071a9.86 9.86 0 0 1-1.025-.221c-.134-.04-.252-.071-.331-.095a4.838 4.838 0 0 1-.126-.04l-.127-.039c-.079-.031-.197-.063-.323-.118a10.159 10.159 0 0 1-.962-.426c-.087-.047-.174-.087-.252-.134-.08-.048-.158-.095-.237-.134-.158-.087-.292-.182-.418-.26a7.006 7.006 0 0 1-.284-.198c-.07-.047-.11-.079-.11-.079s-.04-.031-.11-.079c-.064-.055-.158-.126-.269-.213a9.059 9.059 0 0 1-.37-.315c-.134-.119-.269-.253-.41-.387-.135-.142-.269-.276-.387-.41a9.061 9.061 0 0 1-.315-.371c-.087-.11-.166-.205-.213-.269-.048-.07-.08-.11-.08-.11s-.03-.04-.078-.11c-.047-.072-.118-.166-.197-.285-.079-.118-.174-.26-.26-.418-.048-.079-.087-.158-.134-.237-.048-.078-.087-.165-.134-.252-.174-.34-.324-.694-.426-.963-.056-.134-.087-.244-.119-.323-.023-.08-.04-.126-.04-.126l-.038-.127c-.024-.079-.056-.197-.095-.331a9.877 9.877 0 0 1-.22-1.026c-.032-.19-.048-.379-.072-.552-.016-.182-.024-.347-.04-.49-.007-.284-.015-.473-.015-.473s.008-.19.016-.473c.008-.142.023-.308.04-.49l.07-.552c.063-.379.142-.75.22-1.026.04-.134.072-.252.096-.331.023-.08.039-.126.039-.126l.04-.127c.03-.079.062-.197.118-.323.102-.268.252-.624.426-.963.047-.087.086-.173.134-.252.047-.08.094-.158.134-.237.086-.158.181-.292.26-.418.079-.119.15-.221.197-.284.047-.071.079-.11.079-.11s.031-.04.079-.111c.055-.063.126-.158.213-.269.086-.11.197-.236.315-.37.118-.135.252-.269.387-.41.141-.135.276-.27.41-.387.134-.119.26-.23.37-.316.11-.087.205-.166.268-.213.071-.047.11-.079.11-.079s.04-.032.111-.079c.071-.047.166-.118.284-.197.118-.08.26-.174.418-.26.079-.048.158-.087.237-.135.078-.047.165-.087.252-.134.339-.173.694-.323.962-.426.134-.055.244-.087.323-.118.08-.024.127-.04.127-.04s.047-.016.126-.04c.079-.023.197-.054.33-.094a9.86 9.86 0 0 1 1.026-.22c.19-.032.379-.048.552-.072.181-.016.347-.024.489-.04.284-.007.473-.015.473-.015s.19.008.473.016c.142.008.308.023.49.04l.551.07c.379.063.75.142 1.025.221.135.04.253.071.332.095.079.023.126.04.126.04l.126.039c.079.031.197.063.323.118.268.103.623.253.962.426.087.047.174.087.253.134.079.048.157.095.236.134.158.087.292.182.418.26.119.08.221.15.284.198.071.047.11.079.11.079s.04.032.111.079c.063.055.158.126.268.213.11.087.237.197.37.316.135.118.269.252.41.386.135.142.269.276.387.41.119.135.229.26.316.371.086.11.165.206.213.269.047.07.078.11.078.11s.032.04.08.11c.047.072.118.166.196.285a5.7 5.7 0 0 1 .26.418c.048.079.087.158.135.237.047.079.087.165.134.252.173.34.323.695.426.963.055.134.086.244.118.323.024.08.04.127.04.127l.039.126.094.331c.08.276.158.647.221 1.026.032.19.048.379.071.552.016.182.024.348.04.49.008.284.015.473.015.473l-.015.473z"/></g></g></g></svg>
