<svg xmlns="http://www.w3.org/2000/svg" width="25" height="19" viewBox="0 0 25 19"><path fill="#348C55" d="M2.18 15.946H22.38v-4.739c0-.482.39-.872.872-.872h.436c.482 0 .872.39.872.872v6.048c0 .481-.39.872-.872.872H.872A.872.872 0 0 1 0 17.255v-6.048c0-.482.39-.872.872-.872h.436c.482 0 .873.39.873.872v4.74zm7.87-9.794V.654c0-.361.293-.654.654-.654h2.89c.362 0 .655.293.655.654v5.498h3.001a.872.872 0 0 1 .662 1.44l-5.05 5.884a.872.872 0 0 1-1.324 0L6.487 7.593a.872.872 0 0 1 .662-1.44h2.9z"/></svg>