<svg xmlns="http://www.w3.org/2000/svg" width="50" height="51" viewBox="0 0 50 51"><path fill="#FFF" fill-rule="evenodd" d="M13.39 31.925c-5.169-7.75-4.333-18.321 2.506-25.16 7.791-7.791 20.423-7.791 28.213 0 7.791 7.79 7.791 20.422 0 28.213-6.679 6.679-16.915 7.632-24.61 2.86-.156.235-.339.458-.546.666L8.138 49.32a4.322 4.322 0 1 1-6.113-6.113L12.84 32.391c.173-.173.357-.328.55-.466zm6.738-1.18c5.454 5.454 14.296 5.454 19.75 0 5.453-5.453 5.453-14.295 0-19.749-5.454-5.453-14.296-5.453-19.75 0-5.453 5.454-5.453 14.296 0 19.75z"/></svg>