<?xml version="1.0" standalone="no"?>
<!DOCTYPE svg PUBLIC "-//W3C//DTD SVG 20010904//EN"
 "http://www.w3.org/TR/2001/REC-SVG-20010904/DTD/svg10.dtd">
<svg version="1.0" xmlns="http://www.w3.org/2000/svg"
 width="260.000000pt" height="260.000000pt" viewBox="0 0 260.000000 260.000000"
 preserveAspectRatio="xMidYMid meet">
<metadata>
Created by potrace 1.11, written by Peter Selinger 2001-2013
</metadata>
<g transform="translate(0.000000,260.000000) scale(0.100000,-0.100000)"
fill="#000000" stroke="none">
<path d="M440 2348 c-49 -13 -96 -62 -109 -114 -14 -55 -14 -208 0 -272 7 -34
20 -58 42 -79 33 -31 113 -59 145 -51 19 5 19 -11 18 -546 -1 -544 -1 -551
-21 -552 -67 -2 -112 -18 -142 -51 -46 -49 -56 -97 -51 -238 4 -139 21 -179
86 -211 35 -18 79 -19 902 -19 805 0 867 1 900 18 62 30 82 74 95 207 5 53 7
74 21 245 3 44 8 94 9 110 2 17 6 73 10 125 3 52 8 104 10 116 5 32 -14 106
-33 130 -40 48 -71 59 -202 71 -136 13 -188 8 -233 -22 -43 -27 -56 -60 -76
-177 -21 -124 -39 -174 -74 -212 -37 -40 -68 -46 -228 -46 l-149 0 0 525 0
525 53 0 c110 0 187 44 207 118 14 56 16 237 1 288 -12 44 -51 90 -91 107 -32
14 -1040 18 -1090 5z"/>
</g>
</svg>
