<?xml version="1.0" standalone="no"?>
<!DOCTYPE svg PUBLIC "-//W3C//DTD SVG 20010904//EN"
 "http://www.w3.org/TR/2001/REC-SVG-20010904/DTD/svg10.dtd">
<svg version="1.0" xmlns="http://www.w3.org/2000/svg"
 width="528.000000pt" height="528.000000pt" viewBox="0 0 528.000000 528.000000"
 preserveAspectRatio="xMidYMid meet">
<metadata>
Created by potrace 1.11, written by Peter Selinger 2001-2013
</metadata>
<g transform="translate(0.000000,528.000000) scale(0.100000,-0.100000)"
fill="#000000" stroke="none">
<path d="M1969 4186 c-5 -12 -16 -57 -25 -101 -17 -86 -17 -87 -33 -155 -5
-25 -13 -61 -16 -80 -3 -19 -8 -42 -10 -50 -2 -8 -7 -31 -10 -50 -3 -19 -12
-63 -20 -96 -8 -34 -16 -73 -19 -85 -2 -13 -18 -91 -35 -174 -18 -82 -34 -166
-37 -185 -3 -19 -8 -38 -10 -41 -2 -3 -6 -19 -8 -36 -3 -17 -22 -106 -42 -199
-19 -93 -38 -180 -40 -194 -3 -14 -36 -173 -75 -355 -38 -181 -71 -339 -73
-350 -9 -42 -76 -364 -95 -455 -11 -52 -22 -106 -25 -120 -2 -14 -9 -45 -15
-70 -5 -25 -13 -61 -16 -80 -5 -30 -33 -162 -50 -236 -5 -21 -4 -21 360 -21
363 0 365 0 370 21 2 12 9 44 15 71 6 28 12 59 14 70 2 11 12 56 21 100 9 44
19 91 21 105 3 14 14 63 24 110 10 47 21 99 23 115 3 17 14 71 25 120 12 50
23 102 26 117 4 26 30 155 42 208 2 14 11 57 19 95 7 39 16 77 19 85 5 13 38
15 204 16 212 1 338 8 408 24 24 6 60 13 79 16 79 12 247 80 330 133 214 137
359 331 450 604 56 168 82 320 79 472 -2 134 -4 152 -31 245 -62 218 -230 357
-491 406 -74 14 -181 17 -716 19 -626 1 -628 1 -637 -19z m952 -551 c49 -17
102 -62 124 -104 44 -88 35 -255 -22 -416 -43 -119 -110 -196 -208 -241 -69
-32 -90 -35 -252 -40 -142 -4 -143 -4 -143 19 0 12 4 38 10 57 5 19 12 51 15
70 3 19 10 53 15 75 5 22 11 54 14 70 3 17 19 93 35 170 17 77 32 154 35 170
11 59 17 86 32 148 1 4 2 16 3 28 1 20 5 20 149 16 100 -4 162 -10 193 -22z"/>
<path d="M3710 4190 l-74 -5 29 -19 c62 -38 145 -138 186 -221 21 -45 39 -87
39 -93 0 -7 18 -12 48 -11 77 0 193 -10 297 -27 74 -12 94 -16 155 -30 235
-53 427 -147 563 -274 200 -186 250 -422 154 -724 -9 -27 -12 -45 -7 -40 18
19 109 212 133 284 34 100 38 126 43 250 8 237 -81 424 -281 590 -171 142
-464 250 -800 296 -22 3 -53 7 -70 10 -16 2 -93 6 -170 10 -77 3 -147 6 -155
7 -8 1 -49 0 -90 -3z"/>
<path d="M1550 3636 c-102 -51 -203 -103 -225 -115 -590 -335 -1014 -729
-1213 -1127 -207 -414 -122 -795 234 -1039 192 -133 488 -228 810 -261 48 -5
52 -4 56 19 4 22 -2 26 -101 56 -415 128 -642 374 -642 694 0 83 2 94 22 182
60 258 304 590 619 840 41 33 77 62 80 65 23 26 268 188 387 256 46 26 85 55
87 63 6 17 43 197 52 246 3 17 14 69 25 117 10 48 19 90 19 93 0 14 -40 -3
-210 -89z"/>
</g>
</svg>
